<svg aria-hidden="true" style="position: absolute; width: 0; height: 0; overflow: hidden;" version="1.1" xmlns="http://www.w3.org/2000/svg" xmlns:xlink="http://www.w3.org/1999/xlink">
<defs>
<symbol id="icon-plus" viewBox="0 0 32 32">
<path fill="#fff" style="fill: var(--color1, #fff)" d="M32 18.286h-13.714v13.714h-4.571v-13.714h-13.714v-4.571h13.714v-13.714h4.571v13.714h13.714v4.571z"></path>
</symbol>
<symbol id="icon-delete" viewBox="0 0 32 32">
<path fill="none" stroke="#9b9faa" style="stroke: var(--color2, #9b9faa)" stroke-linejoin="miter" stroke-linecap="butt" stroke-miterlimit="4" stroke-width="4.5714" d="M2.286 2.286l27.429 27.429M2.286 29.714l27.429-27.429"></path>
</symbol>
<symbol id="icon-close" viewBox="0 0 32 32">
<path d="M25.333 8.546l-1.88-1.88-7.453 7.454-7.453-7.453-1.88 1.878 7.453 7.454-7.453 7.453 1.88 1.88 7.453-7.453 7.453 7.453 1.88-1.88-7.453-7.453 7.453-7.454z"></path>
</symbol>
<symbol id="icon-calendar" viewBox="0 0 32 32">
<path fill="#9b9faa" style="fill: var(--color2, #9b9faa)" d="M24 14.4h-3.2v3.2h3.2v-3.2zM17.6 14.4h-3.2v3.2h3.2v-3.2zM11.2 14.4h-3.2v3.2h3.2v-3.2z"></path>
<path fill="#9b9faa" style="fill: var(--color2, #9b9faa)" d="M27.2 3.2h-1.6v-3.2h-3.2v3.2h-12.8v-3.2h-3.2v3.2h-1.6c-1.776 0-3.184 1.44-3.184 3.2l-0.016 22.4c0 1.767 1.433 3.2 3.2 3.2v0h22.4c1.76 0 3.2-1.44 3.2-3.2v-22.4c0-1.76-1.44-3.2-3.2-3.2zM27.2 28.8h-22.4v-17.6h22.4v17.6z"></path>
</symbol>
<symbol id="icon-burger-menu" viewBox="0 0 32 32">
<path d="M4 24h24v-2.667h-24v2.667zM4 17.333h24v-2.667h-24v2.667zM4 8v2.667h24v-2.667h-24z"></path>
</symbol>
<symbol id="icon-go-back" viewBox="0 0 53 32">
<path stroke-linejoin="miter" stroke-linecap="butt" stroke-miterlimit="4" stroke-width="7.1111" d="M49.778 5.333v10.667h-42.667M7.111 16l12.444-12.444M7.111 16l12.444 12.444"></path>
</symbol>
</defs>
</svg>
